HIERARCHY
ROOT pelvis
{
  OFFSET 0 100 0
  CHANNELS 6 Xposition Yposition Zposition Zrotation Xrotation Yrotation
  JOINT pelvis_right_femur
  {
    OFFSET -10.78128 -3.44521 -0.5502486
    CHANNELS 3 Zrotation Xrotation Yrotation
    JOINT right_femur_tibia
    {
      OFFSET -0.8047443 -44.0398 -0.1307829
      CHANNELS 3 Zrotation Xrotation Yrotation
      JOINT right_tibia_foot
      {
        OFFSET 3.006224 -47.83518 -5
        CHANNELS 3 Zrotation Xrotation Yrotation
        End Site
        {
          OFFSET 0 -5 15
        }
      }
    }
  }
  JOINT pelvis_left_femur
  {
    OFFSET 10.78128 -3.44521 -0.5502486
    CHANNELS 3 Zrotation Xrotation Yrotation
    JOINT left_femur_tibia
    {
      OFFSET 0.8047443 -44.0398 -0.1307829
      CHANNELS 3 Zrotation Xrotation Yrotation
      JOINT left_tibia_foot
      {
        OFFSET -4.370144 -48.10324 -4.275266
        CHANNELS 3 Zrotation Xrotation Yrotation
        End Site
        {
          OFFSET 0 -5 15
        }
      }
    }
  }
  JOINT pelvis_spine1
  {
    OFFSET 0 6.468898 -3.129235
    CHANNELS 3 Zrotation Xrotation Yrotation
    JOINT spine1
    {
      OFFSET 0 23.15396 4.99043
      CHANNELS 3 Zrotation Xrotation Yrotation
      JOINT spine2
      {
        OFFSET 0 20.79997 -5.064912
        CHANNELS 3 Zrotation Xrotation Yrotation
        JOINT neck
        {
          OFFSET 0 14.38658 9.616178
          CHANNELS 3 Zrotation Xrotation Yrotation
          End Site
          {
            OFFSET 0 20 0
          }
        }
      }
      JOINT right_manubrium
      {
        OFFSET -5.722621 16.35077 3.967754
        CHANNELS 3 Zrotation Xrotation Yrotation
        JOINT right_clavicle
        {
          OFFSET -13.16364 1.694482 -4.693211
          CHANNELS 3 Zrotation Xrotation Yrotation
          JOINT right_humerus
          {
            OFFSET -28.5034 -0.3100689 -2.792744
            CHANNELS 3 Zrotation Xrotation Yrotation
            JOINT right_radius
            {
              OFFSET -25.15693 0.02248979 -1.271978
              CHANNELS 3 Zrotation Xrotation Yrotation
              End Site
              {
                OFFSET -15 0 0
              }
            }
          }
        }
      }
      JOINT left_manubrium
      {
        OFFSET 5.722621 16.35077 3.967754
        CHANNELS 3 Zrotation Xrotation Yrotation
        JOINT left_clavicle
        {
          OFFSET 13.16364 1.694482 -4.693211
          CHANNELS 3 Zrotation Xrotation Yrotation
          JOINT left_humerus
          {
            OFFSET 29.39168 -1.063119 -2.237045
            CHANNELS 3 Zrotation Xrotation Yrotation
            JOINT left_radius
            {
              OFFSET 24.59957 -0.9528479 0.9047498
              CHANNELS 3 Zrotation Xrotation Yrotation
              End Site
              {
                OFFSET 15 -0 -0
              }
            }
          }
        }
      }
    }
  }
}
MOTION
Frames: 21
Frame Time: 0.0416666666667
1477.764 98.57623 2624.714 4.938801 -3.50813 59.9356 5.453454 -18.16295 5.203712 -0 18.79614 -0 -3.081554 -6.221249 -8.867436 -2.76256 15.57322 -8.849734 -0 43.23015 -0 -8.701544 -10.55554 13.48359 -0.8318229 0.01951923 1.999373 2.20863 8.44124 -7.607663 2.688079 22.92569 4.499002 1.770315 -17.41875 7.267214 2.674248 -12.12897 9.860505 89.80299 25.90455 -21.58179 -0 0 5.919581 -14.69743 11.68887 5.983623 5.275071 -20.02557 -3.441393 -83.1822 25.21374 5.306671 0 0 -21.56616 3.00446 9.655575 9.572694
1483.174 99.62332 2628.602 5.355848 -4.003537 59.3027 6.028233 -13.87084 5.618388 -0 19.52566 -0 -3.79393 -7.200071 -8.171887 -2.590933 11.30299 -8.667987 -0 50.51417 -0 -8.873238 -8.427478 14.31799 -0.6314675 0.4421182 2.661548 2.247953 8.722754 -7.048259 2.753842 23.2855 4.309929 1.803029 -17.55598 7.095677 2.996393 -12.6371 10.20963 88.90838 26.14471 -20.11133 -0 0 6.5424 -14.49189 11.36495 6.220044 4.490056 -19.30038 -3.454388 -84.89964 25.68516 7.783434 0 0 -19.40433 2.308635 9.82657 10.49023
1488.329 100.848 2632.254 5.919394 -4.157227 58.49498 5.977959 -8.882311 5.672626 -0 19.04094 -0 -4.111305 -8.394145 -7.367578 -2.582815 5.534254 -8.200896 -0 55.60454 -0 -8.755374 -7.078632 15.18216 -0.7620395 0.9122897 3.668394 2.112874 9.067617 -6.337927 2.78693 23.61346 4.150563 1.885913 -17.44141 6.855276 3.282264 -13.42035 10.62204 87.64785 26.3284 -18.20778 -0 0 7.857328 -14.85876 11.15625 6.842421 3.961233 -18.72798 -3.448505 -86.67556 25.81714 10.34634 0 0 -17.47543 1.55815 9.79697 11.32705
1493.208 101.9846 2635.623 6.270223 -3.932886 57.62846 5.563914 -3.727095 5.489671 -0 17.67807 -0 -4.147644 -9.827964 -6.335825 -2.475158 -1.444909 -7.568372 -0 57.39993 -0 -8.287052 -6.422779 15.94747 -1.118308 1.307843 4.838005 1.851211 9.363324 -5.549658 2.721181 23.83747 4.072576 2.017879 -17.24023 6.555031 3.618234 -14.4367 11.08978 85.89036 26.74493 -15.84293 -0 0 9.878049 -15.54866 11.08953 7.748586 3.733982 -18.29753 -3.310514 -88.42865 25.62556 12.96879 0 0 -15.85119 0.9741982 9.72375 11.84006
1497.874 102.7751 2638.714 6.178461 -3.403745 56.81232 5.024001 1.203945 5.147253 -0 15.85621 -0 -3.965892 -11.43503 -5.013419 -1.99682 -9.112385 -6.738672 -0 55.14038 -0 -7.458323 -6.210844 16.58482 -1.54017 1.528576 5.954223 1.508626 9.553566 -4.791838 2.506298 23.89343 4.119258 2.182953 -17.08471 6.209212 3.992108 -15.6653 11.57933 83.6277 27.49142 -13.03075 -0 0 12.49437 -16.51147 11.15084 8.931206 3.75759 -17.99163 -3.034415 -89.96142 25.14622 15.54246 0 0 -14.65078 0.6762819 9.653971 11.96861
1502.49 103.0214 2641.594 5.6059 -2.737626 56.11179 4.505671 5.701485 4.707228 -0 13.92525 -0 -3.480193 -13.03166 -3.448596 -0.9539156 -16.64887 -5.527343 -0 48.6654 -0 -6.391061 -6.177272 17.13466 -1.847802 1.504747 6.861745 1.108805 9.669176 -4.202958 2.122421 23.6924 4.330159 2.358922 -17.0649 5.852083 4.259911 -17.12327 12.01577 81.10812 28.39014 -9.995428 -0 0 15.5029 -17.92616 11.28244 10.45617 3.929342 -17.80582 -2.716804 -91.01175 24.41343 17.93835 0 0 -14.07986 0.6216911 9.412292 11.91297
1507.285 102.6492 2644.379 4.654316 -2.121467 55.51697 4.056656 9.605695 4.258626 -0 12.24561 -0 -2.618576 -14.42517 -1.805392 0.5928079 -22.96679 -3.888216 -0 38.98692 -0 -5.342755 -6.159783 17.5867 -1.908666 1.218635 7.511806 0.6858694 9.750314 -3.902478 1.613298 23.1679 4.714176 2.518081 -17.26933 5.562651 4.242856 -18.76148 12.27938 78.81426 29.15981 -7.224071 -0 0 18.58671 -19.85122 11.37004 12.27013 4.117838 -17.69482 -2.464138 -91.45184 23.56039 20.11075 0 0 -14.21137 0.6251826 8.748277 12.05552
1512.457 101.7655 2647.189 3.567058 -1.647138 54.96595 3.605361 12.78705 3.909649 -0 11.4655 -0 -1.51872 -15.3958 -0.3455697 2.075359 -27.13454 -2.312639 -0 28.78168 -0 -4.550162 -6.117685 17.8696 -1.780522 0.7198513 7.954349 0.3120717 9.775912 -3.877942 1.130725 22.42673 5.172405 2.643004 -17.69057 5.422659 3.95728 -20.29275 12.28838 77.16066 29.62354 -5.1885 -0 0 21.27355 -21.91198 11.32034 14.04021 4.195821 -17.52898 -2.311476 -91.50143 22.85628 22.05599 0 0 -14.56696 0.4927134 7.7359 12.63248
1518.093 100.6476 2650.099 2.769429 -1.274035 54.42695 2.966998 15.28913 3.767163 -0 12.59578 -0 -0.4132501 -15.42974 0.6266974 2.617823 -28.986 -1.63717 -0 21.42649 -0 -4.020749 -6.088069 18.0059 -1.76177 0.08991854 8.301409 0.03360641 9.749177 -3.939567 0.8840619 21.76242 5.494377 2.75071 -18.09109 5.417971 3.697388 -21.27952 12.12541 76.23995 29.6952 -4.01107 -0 0 23.09669 -23.58906 11.18686 15.33542 4.111307 -17.18657 -2.2524 -91.60991 22.46665 23.6837 0 0 -14.21485 0.1658069 6.871046 13.45913
1524.174 99.64672 2653.123 2.619514 -0.940831 53.95603 2.024126 17.1253 3.921161 -0 16.50887 -0 0.6238047 -13.92875 0.9178299 1.834986 -28.96254 -2.181476 -0 18.50706 -0 -3.605521 -6.177601 18.06187 -2.086024 -0.5955858 8.646977 -0.2002613 9.787856 -3.913813 0.9464708 21.34065 5.553203 2.857249 -18.24232 5.464513 3.710442 -21.57164 11.9706 76.03403 29.35203 -3.628847 -0 0 23.95437 -24.69145 11.12073 15.97194 3.901438 -16.69277 -2.297793 -91.9734 22.2518 24.92935 0 0 -12.80546 -0.2798505 6.457876 14.20989
1530.622 99.06539 2656.236 3.117051 -0.6740784 53.68203 0.9021692 17.96968 4.356524 -0 23.25074 -0 1.673164 -10.96547 0.5468976 0.1084724 -27.43813 -3.51569 -0 18.95419 -0 -3.27762 -6.537742 17.97308 -2.646897 -1.233449 8.975873 -0.4763304 9.998506 -3.816983 1.180329 21.05072 5.446906 2.933849 -18.19459 5.537944 3.925657 -21.42362 11.89983 76.61694 28.69145 -4.070532 -0 0 24.12522 -25.28982 11.20426 16.03809 3.640298 -16.18692 -2.453943 -92.35863 22.02417 25.82784 0 0 -11.05237 -0.7450357 6.218995 14.82578
1537.289 99.06922 2659.38 4.047469 -0.5688294 53.75002 -0.1184962 17.35954 4.873278 -0 31.94114 -0 2.74813 -7.368366 -0.3755428 -1.924662 -24.55663 -5.053935 -0 20.79 -0 -3.138467 -7.270286 17.68246 -3.190994 -1.666976 9.135752 -0.8084832 10.32779 -3.754881 1.410141 20.80887 5.353233 2.935248 -18.05299 5.679673 4.141817 -21.07611 11.85971 77.95867 27.87332 -5.292944 -0 0 23.827 -25.44201 11.39864 15.68436 3.412542 -15.79085 -2.697592 -92.42421 21.8563 26.22962 0 0 -9.854478 -1.176959 5.80573 15.39127
1543.955 99.66098 2662.476 5.174925 -0.7073666 54.25733 -0.7780004 14.9601 5.183558 -0 41.13232 -0 3.663156 -4.11303 -1.73507 -3.748961 -20.423 -6.416034 -0 22.49667 -0 -3.190506 -8.35754 17.26972 -3.564519 -1.747211 8.896186 -1.106398 10.6208 -3.823913 1.552134 20.72364 5.364318 2.841464 -17.77148 5.911634 4.268917 -20.52869 11.77633 79.77502 27.10748 -7.023886 -0 0 22.99904 -25.16225 11.61817 15.05266 3.278996 -15.59163 -3.009181 -91.94071 21.97435 25.72241 0 0 -9.633871 -1.531153 5.256658 15.87644
1550.374 100.6953 2665.432 6.237172 -1.080734 55.19641 -0.9604972 10.6771 5.121408 -0 49.11286 -0 4.128936 -1.800391 -3.351701 -5.034358 -15.29076 -7.419693 -0 23.1302 -0 -3.253134 -9.682678 16.84414 -3.732011 -1.435435 8.102555 -1.226633 10.77701 -4.120073 1.591137 20.91485 5.481668 2.67473 -17.29577 6.198201 4.341663 -19.72062 11.6352 81.65461 26.67135 -8.919091 -0 0 21.53572 -24.52958 11.81231 14.32577 3.243586 -15.68479 -3.400959 -90.82596 22.45639 24.00043 0 0 -10.42543 -1.744669 4.865268 16.15123
1556.365 101.9131 2668.176 6.980393 -1.585033 56.44151 -0.7358087 4.753921 4.748304 -0 54.31058 -0 3.975769 -0.5466806 -4.977107 -5.671387 -9.586725 -8.053676 -0 22.25551 -0 -3.155242 -11.14759 16.41905 -3.702586 -0.8374221 6.823084 -1.069951 10.80315 -4.706838 1.539402 21.3295 5.668784 2.481555 -16.74278 6.484271 4.386482 -18.73761 11.47076 83.32586 26.70958 -10.80403 -0 0 19.57238 -23.70253 11.96904 13.67499 3.286991 -16.13828 -3.883905 -89.19766 23.12284 21.2209 0 0 -12.07185 -1.778942 4.838297 16.13342
1561.867 102.9977 2670.692 7.28148 -2.090456 57.80153 -0.2947757 -2.237227 4.235964 -0 55.69489 -0 3.285759 -0.2870125 -6.400528 -5.764801 -3.756696 -8.432982 -0 19.96114 -0 -2.951263 -12.78378 15.92618 -3.496775 -0.1339515 5.334295 -0.6465685 10.72295 -5.548066 1.44054 21.78302 5.870124 2.284006 -16.34554 6.754879 4.310597 -17.78397 11.28662 84.78465 27.01416 -12.71314 -0 0 17.47715 -22.81675 12.0622 13.12987 3.431263 -16.91808 -4.406122 -87.33998 23.72279 17.89734 0 0 -14.32444 -1.659678 5.139872 15.86027
1566.937 103.6488 2673.034 7.167266 -2.465123 59.08912 0.1388372 -9.553539 3.6856 -0 52.81305 -0 2.297455 -0.986132 -7.524828 -5.542087 1.860873 -8.687641 -0 16.81949 -0 -2.848318 -14.70167 15.30504 -3.190522 0.499141 3.966784 -0.04498416 10.49329 -6.512146 1.379217 22.1184 6.003633 2.065495 -16.26808 7.036264 3.963403 -16.99134 11.01669 86.14333 27.19292 -14.72879 -0 0 15.58311 -21.9048 12.04636 12.56661 3.735015 -17.88798 -4.842364 -85.52168 24.1466 14.48869 0 0 -16.92041 -1.446477 5.597882 15.42176
1571.729 103.6598 2675.329 6.749691 -2.565393 60.17123 0.3552946 -16.36999 3.070727 -0 45.71922 -0 1.232831 -2.3939 -8.346735 -5.255007 7.019678 -8.858537 -0 13.83689 -0 -3.004298 -16.89783 14.54192 -2.940423 0.9340085 2.960468 0.6178368 10.03791 -7.416073 1.459725 22.29337 5.978006 1.818935 -16.50148 7.345342 3.269179 -16.30038 10.57619 87.45756 26.98688 -16.83381 -0 0 13.95647 -20.94264 11.89277 11.83726 4.227127 -18.87059 -5.067898 -83.86208 24.43764 11.17418 0 0 -19.60647 -1.156641 6.06258 14.84818
1576.485 102.9844 2677.766 6.275435 -2.306014 61.01833 0.1942371 -21.68256 2.305965 -0 35.37138 -0 0.2546641 -3.812831 -8.921003 -5.113913 11.48812 -8.852869 -0 12.30444 -0 -3.467088 -19.05157 13.67745 -2.903818 1.122211 2.387868 1.178888 9.362252 -8.045615 1.753182 22.39 5.740814 1.590063 -16.80493 7.642851 2.292636 -15.50828 9.962126 88.72114 26.30434 -18.86149 -0 0 12.36679 -20.01283 11.61962 10.913 4.86015 -19.72637 -5.077121 -82.32239 24.65415 7.878846 0 0 -22.12483 -0.6981715 6.480724 14.03506
1581.474 101.7698 2680.526 6.127805 -1.786956 61.71432 -0.319837 -24.53412 1.463855 -0 24.28812 -0 -0.3941624 -4.532266 -9.396311 -5.196783 15.02497 -8.518172 -0 13.06601 -0 -4.206269 -20.52352 12.86772 -3.09123 1.078099 2.160137 1.445721 8.674023 -8.267083 2.205473 22.5214 5.350546 1.463604 -16.73906 7.822779 1.294727 -14.47668 9.343258 89.87777 25.19566 -20.57456 -0 0 10.55508 -19.41546 11.3884 9.945534 5.555376 -20.47303 -5.002562 -80.80154 24.66964 4.481272 0 0 -24.31342 0.09569076 6.847078 12.80114
1586.865 100.3214 2683.683 6.361515 -1.311258 62.34912 -0.701416 -25.00082 1.004651 -0 16.00815 -0 -0.4546794 -4.597383 -9.929153 -5.30753 17.49441 -7.954788 -0 15.66549 -0 -5.158534 -20.75657 12.37429 -3.266763 0.7983632 2.113436 1.406655 8.292542 -8.222045 2.598086 22.6344 4.999486 1.4914 -16.17065 7.801594 0.7011963 -13.37929 8.986358 90.75626 24.08467 -21.86562 -0 0 8.706058 -19.27057 11.49236 9.088697 6.279831 -21.22387 -4.880016 -79.508 24.25787 1.422522 0 0 -26.0581 1.228026 7.150542 11.1964
